<svg id="visual" viewBox="0 0 960 100" width="960" height="100" xmlns="http://www.w3.org/2000/svg" xmlns:xlink="http://www.w3.org/1999/xlink" version="1.1"><rect x="0" y="0" width="960" height="100" fill="#2C2F33"></rect><path d="M0 65L22.8 63.2C45.7 61.3 91.3 57.7 137 56.7C182.7 55.7 228.3 57.3 274 60.7C319.7 64 365.3 69 411.2 71C457 73 503 72 548.8 69.2C594.7 66.3 640.3 61.7 686 60.2C731.7 58.7 777.3 60.3 823 62.8C868.7 65.3 914.3 68.7 937.2 70.3L960 72L960 0L937.2 0C914.3 0 868.7 0 823 0C777.3 0 731.7 0 686 0C640.3 0 594.7 0 548.8 0C503 0 457 0 411.2 0C365.3 0 319.7 0 274 0C228.3 0 182.7 0 137 0C91.3 0 45.7 0 22.8 0L0 0Z" fill="#3f2897"></path><path d="M0 43L22.8 47.2C45.7 51.3 91.3 59.7 137 62.7C182.7 65.7 228.3 63.3 274 63.2C319.7 63 365.3 65 411.2 64.5C457 64 503 61 548.8 59.7C594.7 58.3 640.3 58.7 686 56.8C731.7 55 777.3 51 823 50.2C868.7 49.3 914.3 51.7 937.2 52.8L960 54L960 0L937.2 0C914.3 0 868.7 0 823 0C777.3 0 731.7 0 686 0C640.3 0 594.7 0 548.8 0C503 0 457 0 411.2 0C365.3 0 319.7 0 274 0C228.3 0 182.7 0 137 0C91.3 0 45.7 0 22.8 0L0 0Z" fill="#4832a2"></path><path d="M0 53L22.8 53.2C45.7 53.3 91.3 53.7 137 50.8C182.7 48 228.3 42 274 40.8C319.7 39.7 365.3 43.3 411.2 43.8C457 44.3 503 41.7 548.8 41.5C594.7 41.3 640.3 43.7 686 45.7C731.7 47.7 777.3 49.3 823 49.8C868.7 50.3 914.3 49.7 937.2 49.3L960 49L960 0L937.2 0C914.3 0 868.7 0 823 0C777.3 0 731.7 0 686 0C640.3 0 594.7 0 548.8 0C503 0 457 0 411.2 0C365.3 0 319.7 0 274 0C228.3 0 182.7 0 137 0C91.3 0 45.7 0 22.8 0L0 0Z" fill="#513cad"></path><path d="M0 44L22.8 43C45.7 42 91.3 40 137 36.8C182.7 33.7 228.3 29.3 274 28.7C319.7 28 365.3 31 411.2 31.2C457 31.3 503 28.7 548.8 28.7C594.7 28.7 640.3 31.3 686 34C731.7 36.7 777.3 39.3 823 39.2C868.7 39 914.3 36 937.2 34.5L960 33L960 0L937.2 0C914.3 0 868.7 0 823 0C777.3 0 731.7 0 686 0C640.3 0 594.7 0 548.8 0C503 0 457 0 411.2 0C365.3 0 319.7 0 274 0C228.3 0 182.7 0 137 0C91.3 0 45.7 0 22.8 0L0 0Z" fill="#5946b7"></path><path d="M0 25L22.8 25.8C45.7 26.7 91.3 28.3 137 29.5C182.7 30.7 228.3 31.3 274 30.5C319.7 29.7 365.3 27.3 411.2 26.7C457 26 503 27 548.8 26.5C594.7 26 640.3 24 686 22.2C731.7 20.3 777.3 18.7 823 19.3C868.7 20 914.3 23 937.2 24.5L960 26L960 0L937.2 0C914.3 0 868.7 0 823 0C777.3 0 731.7 0 686 0C640.3 0 594.7 0 548.8 0C503 0 457 0 411.2 0C365.3 0 319.7 0 274 0C228.3 0 182.7 0 137 0C91.3 0 45.7 0 22.8 0L0 0Z" fill="#6250c2"></path><path d="M0 8L22.8 8.5C45.7 9 91.3 10 137 9.8C182.7 9.7 228.3 8.3 274 9.5C319.7 10.7 365.3 14.3 411.2 16.3C457 18.3 503 18.7 548.8 17.2C594.7 15.7 640.3 12.3 686 12.2C731.7 12 777.3 15 823 16.5C868.7 18 914.3 18 937.2 18L960 18L960 0L937.2 0C914.3 0 868.7 0 823 0C777.3 0 731.7 0 686 0C640.3 0 594.7 0 548.8 0C503 0 457 0 411.2 0C365.3 0 319.7 0 274 0C228.3 0 182.7 0 137 0C91.3 0 45.7 0 22.8 0L0 0Z" fill="#6a5acd"></path></svg>