<svg id="visual" viewBox="0 0 960 100" width="960" height="100" xmlns="http://www.w3.org/2000/svg" xmlns:xlink="http://www.w3.org/1999/xlink" version="1.1"><rect x="0" y="0" width="960" height="100" fill="#2C2F33"></rect><path d="M0 54L22.8 58C45.7 62 91.3 70 137 73.5C182.7 77 228.3 76 274 74.8C319.7 73.7 365.3 72.3 411.2 71.8C457 71.3 503 71.7 548.8 68.8C594.7 66 640.3 60 686 61.7C731.7 63.3 777.3 72.7 823 72.2C868.7 71.7 914.3 61.3 937.2 56.2L960 51L960 0L937.2 0C914.3 0 868.7 0 823 0C777.3 0 731.7 0 686 0C640.3 0 594.7 0 548.8 0C503 0 457 0 411.2 0C365.3 0 319.7 0 274 0C228.3 0 182.7 0 137 0C91.3 0 45.7 0 22.8 0L0 0Z" fill="#313438"></path><path d="M0 46L22.8 46.8C45.7 47.7 91.3 49.3 137 50.7C182.7 52 228.3 53 274 51.5C319.7 50 365.3 46 411.2 46.7C457 47.3 503 52.7 548.8 57.2C594.7 61.7 640.3 65.3 686 63.2C731.7 61 777.3 53 823 50.8C868.7 48.7 914.3 52.3 937.2 54.2L960 56L960 0L937.2 0C914.3 0 868.7 0 823 0C777.3 0 731.7 0 686 0C640.3 0 594.7 0 548.8 0C503 0 457 0 411.2 0C365.3 0 319.7 0 274 0C228.3 0 182.7 0 137 0C91.3 0 45.7 0 22.8 0L0 0Z" fill="#34373b"></path><path d="M0 36L22.8 37.3C45.7 38.7 91.3 41.3 137 42.2C182.7 43 228.3 42 274 41C319.7 40 365.3 39 411.2 40.8C457 42.7 503 47.3 548.8 47.7C594.7 48 640.3 44 686 42.7C731.7 41.3 777.3 42.7 823 44C868.7 45.3 914.3 46.7 937.2 47.3L960 48L960 0L937.2 0C914.3 0 868.7 0 823 0C777.3 0 731.7 0 686 0C640.3 0 594.7 0 548.8 0C503 0 457 0 411.2 0C365.3 0 319.7 0 274 0C228.3 0 182.7 0 137 0C91.3 0 45.7 0 22.8 0L0 0Z" fill="#373a3e"></path><path d="M0 37L22.8 35C45.7 33 91.3 29 137 29.5C182.7 30 228.3 35 274 37.8C319.7 40.7 365.3 41.3 411.2 38.8C457 36.3 503 30.7 548.8 30.7C594.7 30.7 640.3 36.3 686 38.5C731.7 40.7 777.3 39.3 823 36.8C868.7 34.3 914.3 30.7 937.2 28.8L960 27L960 0L937.2 0C914.3 0 868.7 0 823 0C777.3 0 731.7 0 686 0C640.3 0 594.7 0 548.8 0C503 0 457 0 411.2 0C365.3 0 319.7 0 274 0C228.3 0 182.7 0 137 0C91.3 0 45.7 0 22.8 0L0 0Z" fill="#3b3e42"></path><path d="M0 21L22.8 21.5C45.7 22 91.3 23 137 24.7C182.7 26.3 228.3 28.7 274 28.8C319.7 29 365.3 27 411.2 26.8C457 26.7 503 28.3 548.8 28.8C594.7 29.3 640.3 28.7 686 29C731.7 29.3 777.3 30.7 823 31.2C868.7 31.7 914.3 31.3 937.2 31.2L960 31L960 0L937.2 0C914.3 0 868.7 0 823 0C777.3 0 731.7 0 686 0C640.3 0 594.7 0 548.8 0C503 0 457 0 411.2 0C365.3 0 319.7 0 274 0C228.3 0 182.7 0 137 0C91.3 0 45.7 0 22.8 0L0 0Z" fill="#3e4145"></path><path d="M0 14L22.8 12.8C45.7 11.7 91.3 9.3 137 9.8C182.7 10.3 228.3 13.7 274 13.5C319.7 13.3 365.3 9.7 411.2 10C457 10.3 503 14.7 548.8 15.5C594.7 16.3 640.3 13.7 686 11.7C731.7 9.7 777.3 8.3 823 8.3C868.7 8.3 914.3 9.7 937.2 10.3L960 11L960 0L937.2 0C914.3 0 868.7 0 823 0C777.3 0 731.7 0 686 0C640.3 0 594.7 0 548.8 0C503 0 457 0 411.2 0C365.3 0 319.7 0 274 0C228.3 0 182.7 0 137 0C91.3 0 45.7 0 22.8 0L0 0Z" fill="#424549"></path></svg>