<svg id="visual" viewBox="0 0 960 100" width="960" height="100" xmlns="http://www.w3.org/2000/svg" xmlns:xlink="http://www.w3.org/1999/xlink" version="1.1"><rect x="0" y="0" width="960" height="100" fill="#2C2F33"></rect><path d="M0 33L22.8 32.7C45.7 32.3 91.3 31.7 137 31.3C182.7 31 228.3 31 274 30.3C319.7 29.7 365.3 28.3 411.2 26.8C457 25.3 503 23.7 548.8 26.8C594.7 30 640.3 38 686 39.2C731.7 40.3 777.3 34.7 823 30.8C868.7 27 914.3 25 937.2 24L960 23L960 101L937.2 101C914.3 101 868.7 101 823 101C777.3 101 731.7 101 686 101C640.3 101 594.7 101 548.8 101C503 101 457 101 411.2 101C365.3 101 319.7 101 274 101C228.3 101 182.7 101 137 101C91.3 101 45.7 101 22.8 101L0 101Z" fill="#40377e"></path><path d="M0 48L22.8 46.7C45.7 45.3 91.3 42.7 137 42C182.7 41.3 228.3 42.7 274 43.7C319.7 44.7 365.3 45.3 411.2 45.7C457 46 503 46 548.8 44.5C594.7 43 640.3 40 686 40C731.7 40 777.3 43 823 42.7C868.7 42.3 914.3 38.7 937.2 36.8L960 35L960 101L937.2 101C914.3 101 868.7 101 823 101C777.3 101 731.7 101 686 101C640.3 101 594.7 101 548.8 101C503 101 457 101 411.2 101C365.3 101 319.7 101 274 101C228.3 101 182.7 101 137 101C91.3 101 45.7 101 22.8 101L0 101Z" fill="#483e8d"></path><path d="M0 63L22.8 60.5C45.7 58 91.3 53 137 50C182.7 47 228.3 46 274 45.8C319.7 45.7 365.3 46.3 411.2 46.3C457 46.3 503 45.7 548.8 44.5C594.7 43.3 640.3 41.7 686 42.7C731.7 43.7 777.3 47.3 823 48.8C868.7 50.3 914.3 49.7 937.2 49.3L960 49L960 101L937.2 101C914.3 101 868.7 101 823 101C777.3 101 731.7 101 686 101C640.3 101 594.7 101 548.8 101C503 101 457 101 411.2 101C365.3 101 319.7 101 274 101C228.3 101 182.7 101 137 101C91.3 101 45.7 101 22.8 101L0 101Z" fill="#50459d"></path><path d="M0 57L22.8 58.7C45.7 60.3 91.3 63.7 137 63.8C182.7 64 228.3 61 274 60.8C319.7 60.7 365.3 63.3 411.2 63.5C457 63.7 503 61.3 548.8 59.2C594.7 57 640.3 55 686 56.5C731.7 58 777.3 63 823 63.8C868.7 64.7 914.3 61.3 937.2 59.7L960 58L960 101L937.2 101C914.3 101 868.7 101 823 101C777.3 101 731.7 101 686 101C640.3 101 594.7 101 548.8 101C503 101 457 101 411.2 101C365.3 101 319.7 101 274 101C228.3 101 182.7 101 137 101C91.3 101 45.7 101 22.8 101L0 101Z" fill="#584cad"></path><path d="M0 66L22.8 68.2C45.7 70.3 91.3 74.7 137 76.8C182.7 79 228.3 79 274 79.2C319.7 79.3 365.3 79.7 411.2 79.7C457 79.7 503 79.3 548.8 78C594.7 76.7 640.3 74.3 686 72.3C731.7 70.3 777.3 68.7 823 69.5C868.7 70.3 914.3 73.7 937.2 75.3L960 77L960 101L937.2 101C914.3 101 868.7 101 823 101C777.3 101 731.7 101 686 101C640.3 101 594.7 101 548.8 101C503 101 457 101 411.2 101C365.3 101 319.7 101 274 101C228.3 101 182.7 101 137 101C91.3 101 45.7 101 22.8 101L0 101Z" fill="#6153bd"></path><path d="M0 80L22.8 81.7C45.7 83.3 91.3 86.7 137 88.2C182.7 89.7 228.3 89.3 274 88.5C319.7 87.7 365.3 86.3 411.2 85.7C457 85 503 85 548.8 84.5C594.7 84 640.3 83 686 82.5C731.7 82 777.3 82 823 81.3C868.7 80.7 914.3 79.3 937.2 78.7L960 78L960 101L937.2 101C914.3 101 868.7 101 823 101C777.3 101 731.7 101 686 101C640.3 101 594.7 101 548.8 101C503 101 457 101 411.2 101C365.3 101 319.7 101 274 101C228.3 101 182.7 101 137 101C91.3 101 45.7 101 22.8 101L0 101Z" fill="#6a5acd"></path></svg>