<svg id="visual" viewBox="0 0 960 100" width="960" height="100" xmlns="http://www.w3.org/2000/svg" xmlns:xlink="http://www.w3.org/1999/xlink" version="1.1"><rect x="0" y="0" width="960" height="100" fill="#2C2F33"></rect><path d="M0 33L22.8 34.8C45.7 36.7 91.3 40.3 137 41.3C182.7 42.3 228.3 40.7 274 37.3C319.7 34 365.3 29 411.2 27C457 25 503 26 548.8 28.8C594.7 31.7 640.3 36.3 686 37.8C731.7 39.3 777.3 37.7 823 35.2C868.7 32.7 914.3 29.3 937.2 27.7L960 26L960 101L937.2 101C914.3 101 868.7 101 823 101C777.3 101 731.7 101 686 101C640.3 101 594.7 101 548.8 101C503 101 457 101 411.2 101C365.3 101 319.7 101 274 101C228.3 101 182.7 101 137 101C91.3 101 45.7 101 22.8 101L0 101Z" fill="#313438"></path><path d="M0 55L22.8 50.8C45.7 46.7 91.3 38.3 137 35.3C182.7 32.3 228.3 34.7 274 34.8C319.7 35 365.3 33 411.2 33.5C457 34 503 37 548.8 38.3C594.7 39.7 640.3 39.3 686 41.2C731.7 43 777.3 47 823 47.8C868.7 48.7 914.3 46.3 937.2 45.2L960 44L960 101L937.2 101C914.3 101 868.7 101 823 101C777.3 101 731.7 101 686 101C640.3 101 594.7 101 548.8 101C503 101 457 101 411.2 101C365.3 101 319.7 101 274 101C228.3 101 182.7 101 137 101C91.3 101 45.7 101 22.8 101L0 101Z" fill="#34373b"></path><path d="M0 45L22.8 44.8C45.7 44.7 91.3 44.3 137 47.2C182.7 50 228.3 56 274 57.2C319.7 58.3 365.3 54.7 411.2 54.2C457 53.7 503 56.3 548.8 56.5C594.7 56.7 640.3 54.3 686 52.3C731.7 50.3 777.3 48.7 823 48.2C868.7 47.7 914.3 48.3 937.2 48.7L960 49L960 101L937.2 101C914.3 101 868.7 101 823 101C777.3 101 731.7 101 686 101C640.3 101 594.7 101 548.8 101C503 101 457 101 411.2 101C365.3 101 319.7 101 274 101C228.3 101 182.7 101 137 101C91.3 101 45.7 101 22.8 101L0 101Z" fill="#373a3e"></path><path d="M0 54L22.8 55C45.7 56 91.3 58 137 61.2C182.7 64.3 228.3 68.7 274 69.3C319.7 70 365.3 67 411.2 66.8C457 66.7 503 69.3 548.8 69.3C594.7 69.3 640.3 66.7 686 64C731.7 61.3 777.3 58.7 823 58.8C868.7 59 914.3 62 937.2 63.5L960 65L960 101L937.2 101C914.3 101 868.7 101 823 101C777.3 101 731.7 101 686 101C640.3 101 594.7 101 548.8 101C503 101 457 101 411.2 101C365.3 101 319.7 101 274 101C228.3 101 182.7 101 137 101C91.3 101 45.7 101 22.8 101L0 101Z" fill="#3b3e42"></path><path d="M0 73L22.8 72.2C45.7 71.3 91.3 69.7 137 68.5C182.7 67.3 228.3 66.7 274 67.5C319.7 68.3 365.3 70.7 411.2 71.3C457 72 503 71 548.8 71.5C594.7 72 640.3 74 686 75.8C731.7 77.7 777.3 79.3 823 78.7C868.7 78 914.3 75 937.2 73.5L960 72L960 101L937.2 101C914.3 101 868.7 101 823 101C777.3 101 731.7 101 686 101C640.3 101 594.7 101 548.8 101C503 101 457 101 411.2 101C365.3 101 319.7 101 274 101C228.3 101 182.7 101 137 101C91.3 101 45.7 101 22.8 101L0 101Z" fill="#3e4145"></path><path d="M0 90L22.8 89.5C45.7 89 91.3 88 137 88.2C182.7 88.3 228.3 89.7 274 88.5C319.7 87.3 365.3 83.7 411.2 81.7C457 79.7 503 79.3 548.8 80.8C594.7 82.3 640.3 85.7 686 85.8C731.7 86 777.3 83 823 81.5C868.7 80 914.3 80 937.2 80L960 80L960 101L937.2 101C914.3 101 868.7 101 823 101C777.3 101 731.7 101 686 101C640.3 101 594.7 101 548.8 101C503 101 457 101 411.2 101C365.3 101 319.7 101 274 101C228.3 101 182.7 101 137 101C91.3 101 45.7 101 22.8 101L0 101Z" fill="#424549"></path></svg>